<?xml version="1.0" encoding="UTF-8" standalone="no"?>
<!-- Created with Inkscape (http://www.inkscape.org/) -->

<svg
   width="115.32922mm"
   height="15.004784mm"
   viewBox="0 0 115.32922 15.004784"
   version="1.1"
   id="svg5"
   xml:space="preserve"
   xmlns:inkscape="http://www.inkscape.org/namespaces/inkscape"
   xmlns:sodipodi="http://sodipodi.sourceforge.net/DTD/sodipodi-0.dtd"
   xmlns="http://www.w3.org/2000/svg"
   xmlns:svg="http://www.w3.org/2000/svg"><sodipodi:namedview
     id="namedview7"
     pagecolor="#ffffff"
     bordercolor="#666666"
     borderopacity="1.0"
     inkscape:showpageshadow="2"
     inkscape:pageopacity="0.0"
     inkscape:pagecheckerboard="0"
     inkscape:deskcolor="#d1d1d1"
     inkscape:document-units="mm"
     showgrid="false" /><defs
     id="defs2" /><g
     inkscape:label="Camada 1"
     inkscape:groupmode="layer"
     id="layer1"
     transform="translate(-51.484323,-125.7742)"><path
       d="m 76.360184,132.95764 c 1.214437,-0.64082 2.101321,-1.73831 2.101321,-3.19564 0,-2.53523 -1.957917,-3.9878 -5.368661,-3.9878 h -6.449748 v 14.95002 h 6.962246 c 3.345127,0 5.424488,-1.61899 5.424488,-4.22116 0.0026,-1.75789 -1.160992,-2.92497 -2.669646,-3.54542 z m -3.211513,-0.56621 h -4.010289 v -5.3758 h 3.779837 c 2.128044,0 3.034242,0.82206 3.034242,2.74637 0,1.85738 -0.8382,2.62943 -2.803525,2.62943 z m -4.008437,7.09137 v -5.84994 h 3.972189 c 1.255977,0 3.364707,0.37729 3.364707,2.90512 0,2.06587 -0.913607,2.94482 -3.055938,2.94482 z m -17.655647,-5.15938 c 0,-3.56341 2.718065,-6.45583 6.072982,-6.45583 3.347508,0 6.072981,2.89242 6.072981,6.45583 0,3.56288 -2.727854,6.45557 -6.072981,6.45557 -3.345127,-2.7e-4 -6.073246,-2.89269 -6.073246,-6.4561 z m 2.353734,0 c 0,3.26231 1.389591,5.21388 3.719248,5.21388 v -0.005 c 2.319866,0 3.704696,-1.9468 3.704696,-5.20938 0,-3.26258 -1.37504,-5.21415 -3.704696,-5.21415 -2.329657,0 -3.719248,1.95157 -3.719248,5.21388 z m 27.297592,0 c 0,-3.56341 2.718329,-6.45583 6.073246,-6.45583 3.347508,0 6.073246,2.89242 6.073246,6.45583 0,3.56288 -2.728119,6.45557 -6.073246,6.45557 -3.345127,0 -6.073246,-2.89269 -6.073246,-6.45583 z m 2.353998,0 c 0,3.26231 1.389591,5.21388 3.719248,5.21388 v -0.005 c 2.319866,0 3.704696,-1.9468 3.704696,-5.20938 0,-3.26258 -1.37504,-5.21415 -3.704696,-5.21415 -2.329657,0 -3.719248,1.95157 -3.719248,5.21415 z m 14.755548,-5.06545 H 93.79993 v -1.22687 h 11.14795 v 1.22661 h -4.46511 v 11.33977 h -2.237311 v -11.34004 z m 11.210921,-1.22661 h -2.25187 v 12.56639 h 2.25187 V 128.0311 Z m 8.56589,11.47366 c 0.99827,0 2.78633,-0.31538 3.54912,-2.42358 l 0.21643,-0.61066 1.09035,0.54372 -0.17754,0.49662 c -0.75538,2.0611 -2.49449,3.24538 -4.77308,3.24538 -3.42318,0 -6.00499,-2.76622 -6.00499,-6.43096 0,-3.61765 2.63764,-6.45584 6.00499,-6.45584 2.26615,0 3.99335,1.19433 4.74186,3.28004 l 0.17463,0.49663 -1.09062,0.55615 -0.21643,-0.61569 c -0.55139,-1.5568 -1.83144,-2.45083 -3.51472,-2.45083 -2.33971,0 -3.73671,1.9341 -3.73671,5.18213 0,3.24776 1.397,5.18689 3.73671,5.18689 z m 28.49509,-1.18163 -0.65352,-1.90712 a 3.2305625,3.2305625 0 0 0 -1.39673,-1.67084 c 1.17078,-0.52387 2.18625,-1.50733 2.18625,-3.08134 0,-2.27197 -1.81478,-3.6277 -4.85828,-3.6277 h -4.57703 v 12.56639 h 2.25452 v -5.34856 h 1.96532 c 1.4404,0 1.90447,0.57627 2.3032,1.71583 l 0.63368,1.81239 a 6.1777562,6.1777562 0 0 0 0.70908,1.56448 l 0.17039,0.24818 h 3.02922 l -1.0713,-1.00806 a 3.0620229,3.0620229 0 0 1 -0.6948,-1.26365 z m -7.04479,-9.0678 h 2.17143 c 1.89257,0 2.70193,0.72231 2.70193,2.41565 0,1.62639 -0.82841,2.35161 -2.68446,2.35161 h -2.18652 z m 10.46771,-1.22423 h 2.25187 v 12.56639 h -2.25187 V 128.0311 Z m 10.80056,-0.16404 c -3.35254,0 -6.07351,2.89269 -6.07351,6.45584 0,3.56314 2.73076,6.45583 6.07351,6.45583 3.34274,0 6.07271,-2.89269 6.07271,-6.45583 0,-3.56315 -2.72521,-6.45584 -6.07271,-6.45584 z m 0,1.22661 c 2.31986,0 3.70416,1.95183 3.70416,5.21441 0,3.26258 -1.3843,5.21414 -3.70416,5.21414 -2.32014,0 -3.72904,-1.94416 -3.72904,-5.20938 0,-3.26496 1.40176,-5.21917 3.72904,-5.21917 z m -31.0441,-3.05885 h 1.32186 l -1.02261,2.43576 5.38321,12.13432 h -2.39554 l -1.89732,-4.26826 h -4.44051 l -1.83912,4.26085 h -1.31894 z m -0.889,5.17684 -1.64676,3.88355 h 3.37158 z"
       id="path1361"
       style="fill:#f8f9fa;fill-opacity:1;stroke-width:0.264583" /></g></svg>
