<?xml version="1.0" encoding="UTF-8" standalone="no"?>
<!-- Created with Inkscape (http://www.inkscape.org/) -->

<svg
   width="529.19818mm"
   height="118.0324mm"
   viewBox="0 0 529.19818 118.0324"
   version="1.1"
   id="svg5"
   xml:space="preserve"
   xmlns:inkscape="http://www.inkscape.org/namespaces/inkscape"
   xmlns:sodipodi="http://sodipodi.sourceforge.net/DTD/sodipodi-0.dtd"
   xmlns="http://www.w3.org/2000/svg"
   xmlns:svg="http://www.w3.org/2000/svg"><sodipodi:namedview
     id="namedview7"
     pagecolor="#ffffff"
     bordercolor="#666666"
     borderopacity="1.0"
     inkscape:showpageshadow="2"
     inkscape:pageopacity="0.0"
     inkscape:pagecheckerboard="0"
     inkscape:deskcolor="#d1d1d1"
     inkscape:document-units="mm"
     showgrid="false" /><defs
     id="defs2" /><g
     inkscape:label="Camada 1"
     inkscape:groupmode="layer"
     id="layer1"
     transform="translate(162.3438,-86.324224)"><path
       d="m 258.24779,172.49262 -5.71054,-2.39921 c -3.31133,-1.36996 -5.2527,-2.51277 -5.2527,-4.68306 0,-3.31133 2.96884,-3.99631 6.85158,-3.99631 3.88274,0 7.88082,0.45606 13.36244,2.17029 0.68498,-3.76917 0.68498,-7.30942 0,-10.62075 -3.42667,-1.8278 -9.82219,-2.74169 -15.41738,-2.74169 -10.96323,0 -19.30012,5.93945 -19.30012,14.84597 0,7.99439 3.42668,11.99248 13.01995,15.87522 l 4.45415,1.82779 c 4.22523,1.71245 5.48161,2.73992 5.48161,5.48162 0,4.11166 -4.11165,4.79486 -7.53833,4.79486 -5.71053,0 -10.04933,-1.14104 -15.53095,-3.08241 -0.9139,3.31133 -0.9139,7.65191 0,11.07858 4.68306,2.51278 11.07858,3.31133 17.81659,3.31133 10.84966,0 19.52903,-5.71053 19.52903,-15.98879 -0.004,-8.44868 -3.65737,-12.44677 -11.76533,-15.87344 z m -101.30078,19.53081 c -2.39743,0.68498 -4.11166,0.79856 -6.05303,0.79856 -9.36435,0 -13.01995,-6.1666 -13.01995,-15.0749 0,-9.93576 3.65382,-15.98879 12.9046,-15.98879 2.73993,0 4.45415,0.34249 6.1666,0.79856 v 29.46657 z m 0,-53.22084 v 12.44854 c -2.51278,-0.68498 -5.13913,-0.79855 -7.42299,-0.79855 -15.6463,0 -26.26704,10.50717 -26.26704,27.29451 0,17.13161 10.3936,26.60954 26.60953,26.60954 7.42299,0 14.7324,-1.02747 21.24149,-3.19776 v -73.89092 c -3.99809,1.4853 -8.22331,3.54024 -11.76356,6.39551 -1.82603,1.48531 -2.39743,2.96884 -2.39743,5.13913 z m -54.81795,53.90405 c -0.80033,0.22892 -4.340567,0.57141 -6.053017,0.57141 -6.51087,0 -10.04934,-1.94137 -10.04934,-6.51086 0,-4.56773 3.54025,-6.39552 10.04934,-6.39552 2.17028,0 4.683057,0.22714 6.053017,0.34249 z m -8.565797,-42.48298 c -5.59697,-0.11357 -10.50717,0.57141 -15.30381,1.71245 -0.9139,3.19776 -0.79855,7.88082 0,11.19215 5.93945,-1.36996 9.25078,-1.4853 13.01995,-1.4853 7.30941,0 10.849657,2.97061 10.849657,9.02186 v 0.57141 c -2.170287,-0.22892 -4.796637,-0.45606 -6.624427,-0.45606 -12.10605,0 -22.49788,4.34057 -22.49788,15.98879 0,13.13352 9.36435,17.58767 22.95571,17.58767 6.395517,0 13.362437,-1.14104 19.757957,-3.08241 v -29.57838 c -0.002,-14.16454 -7.65368,-21.12969 -22.157157,-21.47218 z m 208.768157,42.48298 c -7.0805,0 -11.76356,-5.59696 -11.76356,-15.41738 0,-9.36436 3.76916,-15.41739 11.87713,-15.41739 3.42668,0 5.82411,0.57141 9.02009,1.8278 0.91567,-3.19776 2.62635,-6.85335 5.0291,-9.93576 -4.45769,-2.28386 -8.79649,-3.54025 -15.87699,-3.54025 -15.6463,0 -24.66816,11.07858 -24.66816,27.06737 0,16.5602 9.25078,27.0656 25.23957,27.0656 5.82588,0 11.19215,-1.02747 15.53095,-3.42668 -1.94137,-2.51278 -4.10988,-5.93768 -5.36627,-9.93576 -3.99808,1.59888 -5.71053,1.71245 -9.02186,1.71245 z M 193.03624,171.12266 c 1.02925,-6.28195 4.79664,-10.05111 10.50717,-10.05111 6.39552,0 8.9083,4.34057 9.13722,10.05111 z m 10.73432,-20.899 c -15.30381,0 -24.66817,10.27825 -24.66817,27.40986 0,17.13161 9.93577,26.72311 26.9538,26.72311 5.82411,0 12.10605,-1.02747 16.10236,-2.96884 0.79855,-3.31311 0.79855,-7.65191 0,-10.96324 -5.2527,1.48354 -9.70684,2.39744 -14.61883,2.39744 -7.88082,0 -13.36244,-2.96884 -14.50348,-11.30573 h 32.2065 c 0.45784,-1.25639 0.57141,-5.48162 0.57141,-7.19407 -0.002,-15.41915 -8.68115,-24.09853 -22.04359,-24.09853 z m 138.18679,42.7119 c -7.8755,0 -10.27825,-6.39552 -10.27825,-15.53273 0,-8.9083 2.40275,-15.75987 10.27825,-15.75987 8.11152,0 10.39538,6.62443 10.39538,15.75987 0.002,9.59505 -2.62635,15.53273 -10.39538,15.53273 z m 0,-42.7119 c -15.87522,0 -24.77819,10.84966 -24.77819,27.18094 0,16.5602 9.36436,26.95203 24.77819,26.95203 15.99234,0 24.89708,-10.62075 24.89708,-26.95203 0,-16.44662 -8.90297,-27.18094 -24.89708,-27.18094 z m -431.910255,12.26931 -9.687325,5.57567 v 35.69883 l 10.406022,0.0142 c 1.023921,0.002 1.854416,-0.82872 1.854416,-1.85087 v -38.10691 c 0,-1.46046 -1.410776,-1.99283 -2.573113,-1.33092 z m -14.052745,-51.03281 c -7.17455,0 -15.01633,0.66014 -22.76583,1.97686 7.84355,-10.06885 20.2779,-16.563744 34.146087,-16.563744 10.23389,0 20.469554,3.857894 27.356623,9.598594 1.243967,1.03457 2.200455,1.1304 3.156943,0.18811 0.95649,-0.94052 0.86066,-1.88281 -0.19165,-3.10548 -8.9917,-10.446841 -22.19088,-17.504268 -37.782163,-17.222113 -20.37373,0.377981 -37.68634,13.270163 -44.28593,31.150633 -6.02641,1.88281 -11.57369,4.14005 -16.45195,6.86932 -1.3398,0.75419 -1.81715,1.69471 -1.3398,2.82333 0.47913,1.03457 1.43562,1.41077 2.77364,1.03457 4.20926,-1.22445 8.51257,-2.25902 13.00753,-3.19953 -0.47913,2.35306 -0.76484,4.80018 -0.76484,7.34135 -0.3833,16.4697 8.41674,32.09115 21.99923,40.65518 1.33979,0.84824 2.48793,0.84824 3.25277,-0.1881 0.76483,-1.03457 0.66901,-1.97509 -0.47913,-3.01143 -8.6084,-7.71756 -13.39084,-19.19897 -13.39084,-30.58632 0,-5.74071 1.14814,-11.29331 3.3486,-16.2816 4.49496,-0.3762 9.37323,-0.65836 14.73063,-0.65836 34.81687,0 64.180523,11.48141 64.180523,26.53855 0,7.62351 -9.660708,15.24525 -21.138565,20.32759 -2.773638,1.22267 -3.061117,2.06914 -2.677812,3.29359 0.381531,1.12862 1.625497,1.5066 3.061117,1.03457 20.08802,-6.5854 35.29601,-17.40667 35.29601,-30.48873 0,-17.78642 -28.694645,-31.52684 -65.041193,-31.52684 z m -7.42653,64.77678 v 26.35223 c 0,0.66013 0.53414,1.19428 1.19428,1.19428 h 7.3307 v -33.83733 l -7.31828,4.21281 c -0.74709,0.4259 -1.2067,1.0949 -1.2067,2.07801 z m 178.841973,-25.3283 c -6.73801,0 -10.62075,2.62635 -14.27634,7.30941 -0.34249,-2.39743 -0.79855,-4.3388 -1.59888,-6.738 -1.36996,-0.45606 -3.76917,-0.57141 -5.82411,-0.57141 -1.94137,0 -4.45415,0.22892 -5.71053,0.57141 v 51.73376 c 1.71245,0.45784 4.56771,0.57141 7.08049,0.57141 2.39743,0 5.59697,-0.22714 7.0805,-0.57141 v -25.23957 c 0,-10.04934 5.25447,-15.41738 12.33497,-15.41738 1.25639,0 3.42667,0 4.68306,0.22714 0.79855,-3.31133 0.9139,-8.10797 0.22892,-11.4193 -0.80033,-0.22892 -2.85527,-0.45606 -3.99808,-0.45606 z M 2.9985731,192.82199 c -1.48531,0 -3.76917004,0 -5.36805,-0.57141 v -28.43734 c 1.94136996,-1.02924 4.68307,-1.59888 8.22331,-1.59888 7.0804999,0 10.8496699,4.91199 10.8496699,14.16277 -0.002,9.70685 -4.45415,16.44486 -13.7049299,16.44486 z m 5.2527,-42.36941 c -4.11166,0 -8.10797004,0.9139 -10.62075,2.17029 v -25.35492 c -3.99631,1.4853 -8.2233101,3.54024 -11.7635601,6.39551 -1.8278,1.48353 -2.39743,2.96884 -2.39743,5.13913 v 62.5852 c 3.76917,1.59888 11.4210701,2.96884 18.7304801,2.96884 18.5015699,0 29.1223199,-11.30573 29.1223199,-27.63701 -0.002,-16.21771 -7.53834,-26.26704 -23.0710599,-26.26704"
       style="fill:#f8f9fa;fill-opacity:1;stroke-width:0.0177456"
       id="path2351" /></g></svg>
