<?xml version="1.0" encoding="UTF-8" standalone="no"?>
<!-- Created with Inkscape (http://www.inkscape.org/) -->

<svg
   width="49.254593mm"
   height="22.528519mm"
   viewBox="0 0 49.254593 22.528519"
   version="1.1"
   id="svg5"
   xml:space="preserve"
   xmlns:inkscape="http://www.inkscape.org/namespaces/inkscape"
   xmlns:sodipodi="http://sodipodi.sourceforge.net/DTD/sodipodi-0.dtd"
   xmlns="http://www.w3.org/2000/svg"
   xmlns:svg="http://www.w3.org/2000/svg"><sodipodi:namedview
     id="namedview7"
     pagecolor="#ffffff"
     bordercolor="#666666"
     borderopacity="1.0"
     inkscape:showpageshadow="2"
     inkscape:pageopacity="0.0"
     inkscape:pagecheckerboard="0"
     inkscape:deskcolor="#d1d1d1"
     inkscape:document-units="mm"
     showgrid="false" /><defs
     id="defs2"><clipPath
       id="clip1"><path
         d="m 76,50 h 25 V 65.699219 H 76 Z m 0,0"
         id="path2861" /></clipPath><clipPath
       id="clip2"><path
         d="M 26,34 H 141.30078 V 65.699219 H 26 Z m 0,0"
         id="path2864" /></clipPath><clipPath
       id="clip3"><path
         d="M 3,34 H 28 V 65.699219 H 3 Z m 0,0"
         id="path2867" /></clipPath></defs><g
     inkscape:label="Camada 1"
     inkscape:groupmode="layer"
     id="layer1"
     transform="translate(-86.819506,-132.92723)"><g
       id="surface1"
       transform="matrix(0.35277778,0,0,0.35277778,86.226336,132.32267)"
       style="fill:#f8f9fa;fill-opacity:1"><path
         style="fill:#f8f9fa;fill-opacity:1;fill-rule:evenodd;stroke:none"
         d="m 16.417969,16.355469 7.71875,0.01563 c 2.023437,0 3.105469,-0.03906 4.621094,1.546875 3.019531,3.15625 0.847656,7.882812 -4.503907,6.707031 1.152344,5.269531 -4.566406,7.207031 -6.972656,3.578125 -0.941406,-1.417969 -0.820312,-2.789062 -0.863281,-4.414062 z m 0,0"
         id="path2872" /><path
         style="fill:#f8f9fa;fill-opacity:1;fill-rule:evenodd;stroke:none"
         d="m 15.394531,16.355469 -7.71875,0.01563 c -2.027343,0 -3.105468,-0.03906 -4.621093,1.546875 -3.023438,3.15625 -0.847657,7.882812 4.5,6.707031 -1.152344,5.269531 4.566406,7.207031 6.976562,3.578125 0.941406,-1.417969 0.820313,-2.789062 0.859375,-4.414062 z m 0,0"
         id="path2874" /><path
         style="fill:#f8f9fa;fill-opacity:1;fill-rule:evenodd;stroke:none"
         d="m 15.394531,15.421875 -7.71875,-0.01563 c -2.027343,0 -3.105468,0.03906 -4.621093,-1.546875 -3.023438,-3.15625 -0.847657,-7.882812 4.5,-6.707031 -1.152344,-5.269531 4.566406,-7.2070315 6.976562,-3.578125 0.941406,1.417969 0.820313,2.789062 0.859375,4.414062 z m 0,0"
         id="path2876" /><path
         style="fill:#f8f9fa;fill-opacity:1;fill-rule:evenodd;stroke:none"
         d="m 16.417969,15.421875 7.71875,-0.01563 c 2.023437,0 3.105469,0.03906 4.621094,-1.546875 3.019531,-3.15625 0.847656,-7.882812 -4.5,-6.707031 C 25.40625,1.882813 19.6875,-0.0546875 17.28125,3.574219 16.339844,4.992188 16.464844,6.363281 16.421875,7.988281 Z m 0,0"
         id="path2878" /><path
         style="fill:#f8f9fa;fill-opacity:1;fill-rule:evenodd;stroke:none"
         d="M 89.089844,48.878906 H 101.77734 L 112.80469,35 h -12.69531 z m 0,0"
         id="path2880" /><g
         clip-path="url(#clip1)"
         clip-rule="nonzero"
         id="g2884"
         style="fill:#f8f9fa;fill-opacity:1"><path
           style="fill:#f8f9fa;fill-opacity:1;fill-rule:evenodd;stroke:none"
           d="M 76.390625,65.042969 H 89.089844 L 100.10938,50.996094 H 87.414063 Z m 0,0"
           id="path2882" /></g><g
         clip-path="url(#clip2)"
         clip-rule="nonzero"
         id="g2888"
         style="fill:#f8f9fa;fill-opacity:1"><path
           style="fill:#f8f9fa;fill-opacity:1;fill-rule:evenodd;stroke:none"
           d="M 45.636719,44.691406 42.0625,53.59375 h 4.945313 l -1.355469,-8.9375 z m -18.925781,20.4375 14.652343,-30.171875 h 11.078125 l 6.1875,30.171875 h -9.734375 l -0.714843,-4.023437 h -9.4375 l -2.171875,4.023437 z m 36.515625,0 4.246093,-30.171875 h 9.804688 L 73.03125,65.128906 Z m 65.195307,-20.472656 -3.58593,8.9375 h 4.9375 z m -18.94531,20.472656 14.65625,-30.171875 h 11.08203 l 6.17578,30.171875 h -9.72656 l -0.71484,-4.023437 h -9.44141 l -2.16797,4.023437 z m 0,0"
           id="path2886" /></g><path
         style="fill:#f8f9fa;fill-opacity:1;fill-rule:evenodd;stroke:none"
         d="m 87.808594,51.019531 h 12.281246 l 8.41407,13.9375 H 96.222656 Z m 0,0"
         id="path2890" /><path
         style="fill:#f8f9fa;fill-opacity:1;fill-rule:evenodd;stroke:none"
         d="m 80.96875,34.832031 h 11.847656 l 8.117184,14.046875 H 89.089844 Z m 0,0"
         id="path2892" /><g
         clip-path="url(#clip3)"
         clip-rule="nonzero"
         id="g2896"
         style="fill:#f8f9fa;fill-opacity:1"><path
           style="fill:#f8f9fa;fill-opacity:1;fill-rule:evenodd;stroke:none"
           d="m 27.003906,36.035156 -0.945312,8.875 c -3.613281,-4.984375 -11.988281,-1.542968 -12.644531,4.664063 -0.832032,7.878906 7.222656,9.71875 11.609375,5.078125 l -0.941407,8.894531 c -1.3125,0.644531 -2.59375,1.140625 -3.855468,1.480469 -1.257813,0.335937 -2.511719,0.515625 -3.761719,0.542969 -1.574219,0.03125 -3,-0.132813 -4.28125,-0.492188 C 10.902344,64.722656 9.742188,64.160156 8.714844,63.398438 6.734375,61.949219 5.304688,60.109375 4.421875,57.871094 3.542969,55.621094 3.25,53.085938 3.550781,50.253906 3.792969,47.976563 4.367188,45.898438 5.28125,44.015625 6.1875,42.132813 7.441406,40.425781 9.042969,38.875 c 1.507812,-1.480469 3.152344,-2.597656 4.933594,-3.355469 1.777343,-0.75 3.710937,-1.148437 5.804687,-1.195312 1.25,-0.02734 2.476563,0.101562 3.664063,0.386719 1.199218,0.289062 2.382812,0.734375 3.558593,1.324218 z m 0,0"
           id="path2894" /></g><path
         style="fill:#f8f9fa;fill-opacity:1;fill-rule:evenodd;stroke:none"
         d="M 31.566406,27.332031 35.273438,7.535156 h 7.429687 l -2.585937,13.699219 h 6.179687 l -1.152344,6.097656 z M 54.15625,18.503906 c -0.539062,0 -0.996094,0.214844 -1.371094,0.65625 -0.375,0.4375 -0.5625,0.972657 -0.5625,1.613282 0,0.472656 0.136719,0.84375 0.40625,1.121093 0.269532,0.28125 0.628907,0.421875 1.082032,0.421875 0.574218,0 1.042968,-0.207031 1.402343,-0.628906 0.359375,-0.417969 0.542969,-0.96875 0.542969,-1.644531 0,-0.476563 -0.128906,-0.851563 -0.398437,-1.128906 -0.265625,-0.273438 -0.628907,-0.410157 -1.101563,-0.410157 z m -8.179687,2.851563 c 0,-1.144531 0.199218,-2.214844 0.601562,-3.210938 0.394531,-1 0.972656,-1.871093 1.734375,-2.632812 0.839844,-0.84375 1.796875,-1.484375 2.867188,-1.925781 1.074218,-0.4375 2.214843,-0.652344 3.433593,-0.652344 2.195313,0 3.949219,0.601562 5.257813,1.816406 1.304687,1.214844 1.964844,2.835938 1.964844,4.859375 0,0.949219 -0.167969,1.863281 -0.492188,2.746094 -0.320312,0.882812 -0.796875,1.695312 -1.417969,2.433594 -0.824218,0.984375 -1.828125,1.742187 -3.011718,2.273437 -1.1875,0.527344 -2.457032,0.796875 -3.824219,0.796875 -2.070313,0 -3.773438,-0.613281 -5.105469,-1.835937 -1.335937,-1.230469 -2.007812,-2.785157 -2.007812,-4.667969 z m 16.675781,5.976562 1.664062,-8.949218 h -1.773437 l 0.960937,-5.03125 h 1.773438 L 66.003906,9.441406 H 72.6875 l -0.722656,3.910157 h 2.054687 l -0.960937,5.03125 h -2.054688 l -1.675781,8.949218 z m 16.777344,-8.777343 h 3.410156 v -0.203125 c 0,-0.4375 -0.125,-0.789063 -0.371094,-1.046875 -0.238281,-0.253907 -0.566406,-0.382813 -0.976562,-0.382813 -0.515625,0 -0.933594,0.128906 -1.265625,0.390625 -0.328125,0.257813 -0.59375,0.671875 -0.796875,1.242188 z m 9.0625,2.597656 h -9.414063 c 0,0.703125 0.144531,1.246094 0.449219,1.632812 0.304687,0.390625 0.726562,0.582032 1.261719,0.582032 0.382812,0 0.726562,-0.08984 1.027343,-0.277344 0.292969,-0.183594 0.617188,-0.507813 0.964844,-0.964844 l 5.035156,1.054688 c -0.835937,1.550781 -1.902343,2.71875 -3.214843,3.503906 -1.304688,0.785156 -2.84375,1.175781 -4.609375,1.175781 -2.066407,0 -3.761719,-0.609375 -5.078125,-1.832031 -1.316407,-1.222656 -1.976563,-2.789063 -1.976563,-4.699219 0,-1.125 0.195313,-2.191406 0.589844,-3.1875 0.390625,-1.003906 0.953125,-1.878906 1.6875,-2.628906 0.824219,-0.835938 1.777344,-1.480469 2.863281,-1.933594 1.085938,-0.449219 2.226563,-0.675781 3.4375,-0.675781 2.074219,0 3.765625,0.59375 5.089844,1.773437 1.328125,1.183594 1.992187,2.679688 1.992187,4.488282 0,0.34375 -0.0078,0.679687 -0.02734,1 -0.01953,0.324218 -0.04687,0.65625 -0.07813,0.988281 z m -0.402344,6.179687 2.648437,-13.980468 h 6.121094 l -0.480469,1.90625 c 0.484375,-0.792969 1.046875,-1.382813 1.6875,-1.773438 0.640625,-0.386719 1.375,-0.582031 2.191404,-0.582031 0.20703,0 0.4375,0.01953 0.69532,0.05859 0.26171,0.03516 0.57812,0.08594 0.9414,0.160156 l -1.0664,5.710937 c -0.46875,-0.15625 -0.89063,-0.273437 -1.26563,-0.355468 -0.375,-0.07813 -0.710937,-0.121094 -1.015625,-0.121094 -0.78125,0 -1.359375,0.195312 -1.746094,0.585937 -0.382812,0.390625 -0.667968,1.113282 -0.859375,2.160157 l -1.152343,6.230468 z M 106.72656,12.636719 c -1,0 -1.83203,-0.304688 -2.50781,-0.914063 -0.67187,-0.609375 -1.00391,-1.355468 -1.00391,-2.246093 0,-0.960938 0.39454,-1.789063 1.19141,-2.496094 0.79688,-0.699219 1.74609,-1.050781 2.85156,-1.050781 1.00782,0 1.84766,0.300781 2.51172,0.902343 0.67188,0.597657 1.00391,1.347657 1.00391,2.25 0,0.964844 -0.39453,1.796875 -1.19531,2.503907 -0.79688,0.699218 -1.74219,1.050781 -2.85157,1.050781 z m -6.33984,14.695312 2.60547,-13.980468 h 6.69922 l -2.625,13.980468 z m 17.81641,-8.75 c -0.53907,0 -0.98047,0.207032 -1.33204,0.628907 -0.34375,0.417968 -0.51953,0.957031 -0.51953,1.613281 0,0.507812 0.12891,0.894531 0.38282,1.164062 0.24609,0.273438 0.60546,0.40625 1.07421,0.40625 0.58204,0 1.0586,-0.199218 1.42579,-0.601562 0.36718,-0.398438 0.54687,-0.917969 0.54687,-1.550781 0,-0.511719 -0.14062,-0.917969 -0.42969,-1.210938 -0.28515,-0.300781 -0.67187,-0.449219 -1.14843,-0.449219 z m 2.87109,-5.230468 h 6.51953 l -2.62891,13.980468 h -6.30859 l 0.50781,-1.878906 c -0.58984,0.800781 -1.24218,1.398438 -1.9414,1.792969 -0.69922,0.390625 -1.48047,0.585937 -2.33985,0.585937 -1.51953,0 -2.76953,-0.578125 -3.7539,-1.730468 -0.98438,-1.15625 -1.47657,-2.644532 -1.47657,-4.476563 0,-1.054687 0.17579,-2.09375 0.51954,-3.117187 0.33984,-1.019532 0.82421,-1.949219 1.45703,-2.777344 0.70703,-0.929688 1.5,-1.628906 2.36718,-2.109375 0.875,-0.476563 1.8125,-0.71875 2.8086,-0.71875 0.89844,0 1.67578,0.203125 2.33594,0.609375 0.65625,0.40625 1.21875,1.027344 1.6875,1.851562 z m 4.99219,12.152343 2.51171,-4.121093 c 0.6875,0.664062 1.36329,1.183593 2.03125,1.546875 0.67188,0.363281 1.26954,0.550781 1.78907,0.550781 0.22265,0 0.39843,-0.05859 0.54297,-0.164063 0.14453,-0.109375 0.21093,-0.25 0.21093,-0.417968 0,-0.265625 -0.3125,-0.558594 -0.96093,-0.890625 -0.043,-0.01953 -0.0781,-0.03516 -0.0977,-0.04297 l -1.07031,-0.554688 c -0.84375,-0.441406 -1.46875,-0.953125 -1.8711,-1.535156 -0.39843,-0.582031 -0.60547,-1.261719 -0.60547,-2.035156 0,-1.441406 0.56641,-2.625 1.69922,-3.550781 1.13282,-0.921875 2.58985,-1.386719 4.3711,-1.386719 0.93359,0 1.85937,0.140625 2.77343,0.414062 0.91797,0.277344 1.85547,0.699219 2.8125,1.277344 l -2.26171,3.761719 c -0.47657,-0.441406 -0.9375,-0.785156 -1.375,-1.019531 -0.4375,-0.242188 -0.85157,-0.359375 -1.22266,-0.359375 -0.23047,0 -0.41797,0.05859 -0.5625,0.175781 -0.14844,0.117187 -0.22266,0.261719 -0.22266,0.433594 0,0.214843 0.27735,0.445312 0.8125,0.6875 0.15235,0.07422 0.27344,0.128906 0.35547,0.164062 l 0.85156,0.390625 c 0.8711,0.386719 1.51563,0.878906 1.92579,1.480469 0.41796,0.597656 0.61718,1.347656 0.61718,2.238281 0,1.597656 -0.58593,2.878906 -1.7539,3.855469 -1.17188,0.972656 -2.72266,1.457031 -4.65625,1.457031 -1.02344,0 -2.08985,-0.195312 -3.19922,-0.585937 -1.10938,-0.394532 -2.25781,-0.984375 -3.44531,-1.769532 z m 0,0"
         id="path2898" /></g></g></svg>
