<?xml version="1.0" encoding="UTF-8" standalone="no"?>
<!-- Created with Inkscape (http://www.inkscape.org/) -->

<svg
   width="215.79414mm"
   height="37.808968mm"
   viewBox="0 0 215.79414 37.808968"
   version="1.1"
   id="svg5"
   xml:space="preserve"
   xmlns:inkscape="http://www.inkscape.org/namespaces/inkscape"
   xmlns:sodipodi="http://sodipodi.sourceforge.net/DTD/sodipodi-0.dtd"
   xmlns="http://www.w3.org/2000/svg"
   xmlns:svg="http://www.w3.org/2000/svg"><sodipodi:namedview
     id="namedview7"
     pagecolor="#ffffff"
     bordercolor="#666666"
     borderopacity="1.0"
     inkscape:showpageshadow="2"
     inkscape:pageopacity="0.0"
     inkscape:pagecheckerboard="0"
     inkscape:deskcolor="#d1d1d1"
     inkscape:document-units="mm"
     showgrid="false" /><defs
     id="defs2" /><g
     inkscape:label="Camada 1"
     inkscape:groupmode="layer"
     id="layer1"
     transform="translate(43.556657,-125.28701)"><g
       style="fill:#f8f9fa;fill-opacity:1"
       id="g18"
       transform="matrix(0.26458333,0,0,0.26458333,-43.556656,125.28701)"><path
         _ngcontent-c38=""
         d="m 107.6,65.4 c -0.2,-5.2 -1.7,-10.3 -4.3,-14.9 L 79.8,9.9 C 78,6.8 76.8,3.5 76.1,0 l -1,1.7 c -5.8,10.1 -5.8,22.5 0,32.6 l 18.8,32.6 c 5.8,10.1 5.8,22.5 0,32.6 l -1,1.7 C 92.2,97.7 91,94.4 89.2,91.4 L 72,61.5 61,42.5 c -1.8,-3.1 -3,-6.4 -3.7,-9.8 l -1,1.7 c -5.8,10 -5.8,22.4 -0.1,32.5 v 0 l 18.9,32.6 c 5.8,10.1 5.8,22.5 0,32.6 l -1,1.7 c -0.7,-3.5 -2,-6.8 -3.7,-9.8 L 46.9,83.2 C 43.8,77.8 42.3,71.7 42.6,65.5 17.4,72 0,86 0,102.2 c 0,22.5 33.6,40.7 75.1,40.7 41.5,0 75.1,-18.2 75.1,-40.7 C 150.2,86 132.8,72 107.6,65.4 Z m 70.9,69.6 c 0.2,-4.9 1.1,-9.7 2.7,-14.2 8.1,3.6 16.9,5.4 25.8,5.5 13.1,0 20.4,-4.2 20.4,-12.6 0,-8.4 -5.4,-12 -18.6,-17.8 l -7.2,-3.1 C 188.3,87 179.3,79.5 179.3,64.6 c 0,-16.1 11.1,-26.4 34,-26.4 8.8,-0.1 17.5,1.3 25.8,4.1 -0.3,4.8 -1.3,9.5 -2.8,14.1 -7.4,-2.6 -15.2,-4 -23.1,-4.1 -12.3,0 -17.9,4.8 -17.9,12.3 0,7.5 5.5,11.6 15.4,15.8 l 7.6,3.2 c 17.9,7.6 25.4,15.7 25.4,29.4 0,16.2 -12.3,27.4 -36.2,27.4 -11.6,0 -21.1,-1.7 -29,-5.4 z m 141,-67.4 v 70.5 h -14.2 l -0.8,-8.5 c -4,6.2 -10,10.1 -19.9,10.1 -18.6,0 -31,-13.5 -31,-37.2 0,-24.8 13.3,-38.9 39.4,-38.9 10,0 18.3,1.1 26.5,4 z M 303.9,122 V 77.7 c -3.7,-0.6 -7.4,-0.9 -11.1,-0.8 -16.1,0 -23.5,9.9 -23.5,25.7 0,14.4 5.8,24.5 19.6,24.5 5.4,0 10.7,-1.8 15,-5.1 z m 95,-31.3 v 47.4 H 383.4 V 93.4 c 0,-11.1 -3.7,-16.5 -19.2,-16.5 -4.1,0.1 -8.2,0.4 -12.3,1.1 v 60.1 H 336.4 V 67.6 c 9.9,-2.4 20.7,-3.9 28.2,-3.9 25.9,-0.1 34.3,9.9 34.3,27 z m 43,35.8 c 4.1,0 8.2,-0.7 12.1,-2.1 -0.4,4.2 -1,9 -1.8,13.1 -4.2,1.6 -8.6,2.3 -13.1,2.2 -15.1,0 -24.7,-6.9 -24.7,-24.1 v -74 c 5,-1.5 10.3,-2.3 15.5,-2.3 V 66 h 24.5 c -0.2,4.4 -0.7,8.9 -1.4,13.3 h -23.1 v 34.6 c 0,9.1 4.5,12.6 12,12.6 z m 83.2,-59 V 138 h -14.2 l -0.9,-8.5 c -4,6.2 -10,10.1 -19.9,10.1 -18.6,0 -31,-13.5 -31,-37.2 0,-24.8 13.3,-38.9 39.4,-38.9 10.1,0.1 18.4,1.2 26.6,4 z M 509.6,122 V 77.7 c -3.7,-0.6 -7.4,-0.9 -11.1,-0.8 -16.1,0 -23.6,9.9 -23.6,25.7 0,14.4 5.8,24.5 19.6,24.5 5.5,0 10.8,-1.8 15.1,-5.1 z m 94.9,-31.3 v 47.4 H 589 V 93.4 c 0,-11.1 -3.7,-16.5 -19.2,-16.5 -4.1,0.1 -8.2,0.4 -12.2,1.1 v 60.1 H 542 V 67.6 c 9.9,-2.4 20.7,-3.9 28.2,-3.9 26,-0.1 34.3,9.9 34.3,27 z M 683.2,39.3 V 138 H 669 l -0.8,-9 c -4,6.6 -10,10.7 -20.2,10.7 -18.6,0 -31,-13.5 -31,-37.2 0,-24.8 13.3,-38.9 39.3,-38.9 3.9,0 7.8,0.4 11.6,1.1 V 41.5 c 4.8,-1.7 10.3,-2.2 15.3,-2.2 z m -15.3,82.4 V 78.3 c -4.1,-0.9 -8.2,-1.4 -12.4,-1.4 -15.4,0 -22.7,9.6 -22.7,25.7 0,14.4 5.8,24.5 19.6,24.5 5.6,0 11.1,-1.9 15.5,-5.4 z m 93.4,-13.8 h -49.5 c 2,12.6 9.3,18.6 23.1,18.6 8.6,0 17,-1.8 24.8,-5.4 -0.6,4.1 -1.4,9.5 -2.4,14.1 -7.1,3.2 -14.5,4.5 -22.8,4.5 -26,0 -38.5,-14.4 -38.5,-38.5 0,-21 9.7,-37.7 34.4,-37.7 22.1,0 31.7,14.5 31.7,32.3 0,4.1 -0.3,8.1 -0.8,12.1 z m -49.8,-13 h 35 c 0,-11.6 -6.2,-18.3 -16.9,-18.3 -11.1,0 -16.9,6.3 -18.1,18.3 z M 815.6,64.2 c 0,4.5 -0.4,8.9 -1.4,13.3 -3.9,-0.4 -7.8,-0.6 -11.7,-0.6 -3.8,0 -7.6,0.3 -11.4,0.8 v 60.4 H 775.6 V 67.6 c 6.6,-2.2 17.8,-3.9 26.5,-3.9 4.4,-0.1 9,0.1 13.5,0.5 z"
         id="path9"
         style="fill:#f8f9fa;fill-opacity:1" /></g></g></svg>
